%TF.GenerationSoftware,KiCad,Pcbnew,7.0.7*%
%TF.CreationDate,2024-05-24T10:30:40-07:00*%
%TF.ProjectId,Pinky,50696e6b-792e-46b6-9963-61645f706362,rev?*%
%TF.SameCoordinates,Original*%
%TF.FileFunction,Drillmap*%
%TF.FilePolarity,Positive*%
%FSLAX45Y45*%
G04 Gerber Fmt 4.5, Leading zero omitted, Abs format (unit mm)*
G04 Created by KiCad (PCBNEW 7.0.7) date 2024-05-24 10:30:40*
%MOMM*%
%LPD*%
G01*
G04 APERTURE LIST*
%ADD10C,0.100000*%
%ADD11C,0.200000*%
%ADD12C,0.040000*%
%ADD13C,0.155000*%
G04 APERTURE END LIST*
D10*
X12446000Y-6629400D02*
X17500600Y-6629400D01*
X17500600Y-9677400D01*
X12446000Y-9677400D01*
X12446000Y-6629400D01*
X13001600Y-9347200D02*
G75*
G03*
X13001600Y-9347200I-200000J0D01*
G01*
D11*
D12*
X13238800Y-8108000D02*
X13278800Y-8148000D01*
X13278800Y-8108000D02*
X13238800Y-8148000D01*
X13365800Y-7777800D02*
X13405800Y-7817800D01*
X13405800Y-7777800D02*
X13365800Y-7817800D01*
X13518200Y-8743000D02*
X13558200Y-8783000D01*
X13558200Y-8743000D02*
X13518200Y-8783000D01*
X13772200Y-8158800D02*
X13812200Y-8198800D01*
X13812200Y-8158800D02*
X13772200Y-8198800D01*
X13848400Y-8743000D02*
X13888400Y-8783000D01*
X13888400Y-8743000D02*
X13848400Y-8783000D01*
X13924600Y-8158800D02*
X13964600Y-8198800D01*
X13964600Y-8158800D02*
X13924600Y-8198800D01*
X14559600Y-8666800D02*
X14599600Y-8706800D01*
X14599600Y-8666800D02*
X14559600Y-8706800D01*
X14585000Y-8793800D02*
X14625000Y-8833800D01*
X14625000Y-8793800D02*
X14585000Y-8833800D01*
X14686600Y-7269800D02*
X14726600Y-7309800D01*
X14726600Y-7269800D02*
X14686600Y-7309800D01*
X14714850Y-8006400D02*
X14754850Y-8046400D01*
X14754850Y-8006400D02*
X14714850Y-8046400D01*
X14813600Y-8539800D02*
X14853600Y-8579800D01*
X14853600Y-8539800D02*
X14813600Y-8579800D01*
X14813601Y-7727000D02*
X14853601Y-7767000D01*
X14853601Y-7727000D02*
X14813601Y-7767000D01*
X14864869Y-7980531D02*
X14904869Y-8020531D01*
X14904869Y-7980531D02*
X14864869Y-8020531D01*
X14915200Y-8082600D02*
X14955200Y-8122600D01*
X14955200Y-8082600D02*
X14915200Y-8122600D01*
X15067600Y-7828600D02*
X15107600Y-7868600D01*
X15107600Y-7828600D02*
X15067600Y-7868600D01*
X15194600Y-7650800D02*
X15234600Y-7690800D01*
X15234600Y-7650800D02*
X15194600Y-7690800D01*
X15245400Y-7828600D02*
X15285400Y-7868600D01*
X15285400Y-7828600D02*
X15245400Y-7868600D01*
X15601000Y-7752400D02*
X15641000Y-7792400D01*
X15641000Y-7752400D02*
X15601000Y-7792400D01*
X15748144Y-8800412D02*
X15788144Y-8840412D01*
X15788144Y-8800412D02*
X15748144Y-8840412D01*
X15804200Y-8209600D02*
X15844200Y-8249600D01*
X15844200Y-8209600D02*
X15804200Y-8249600D01*
X15855000Y-8692200D02*
X15895000Y-8732200D01*
X15895000Y-8692200D02*
X15855000Y-8732200D01*
X15867700Y-8831900D02*
X15907700Y-8871900D01*
X15907700Y-8831900D02*
X15867700Y-8871900D01*
X15905800Y-8946200D02*
X15945800Y-8986200D01*
X15945800Y-8946200D02*
X15905800Y-8986200D01*
X16007400Y-8108000D02*
X16047400Y-8148000D01*
X16047400Y-8108000D02*
X16007400Y-8148000D01*
X16032800Y-8971600D02*
X16072800Y-9011600D01*
X16072800Y-8971600D02*
X16032800Y-9011600D01*
X16109000Y-8895400D02*
X16149000Y-8935400D01*
X16149000Y-8895400D02*
X16109000Y-8935400D01*
X16591600Y-8387400D02*
X16631600Y-8427400D01*
X16631600Y-8387400D02*
X16591600Y-8427400D01*
D10*
X15366200Y-9448800D02*
G75*
G03*
X15366200Y-9448800I-50000J0D01*
G01*
X15620200Y-9448800D02*
G75*
G03*
X15620200Y-9448800I-50000J0D01*
G01*
X15972800Y-9192800D02*
G75*
G03*
X15972800Y-9192800I-50000J0D01*
G01*
X15972800Y-9446800D02*
G75*
G03*
X15972800Y-9446800I-50000J0D01*
G01*
X16226800Y-9192800D02*
G75*
G03*
X16226800Y-9192800I-50000J0D01*
G01*
X16226800Y-9446800D02*
G75*
G03*
X16226800Y-9446800I-50000J0D01*
G01*
X16480800Y-9192800D02*
G75*
G03*
X16480800Y-9192800I-50000J0D01*
G01*
X16480800Y-9446800D02*
G75*
G03*
X16480800Y-9446800I-50000J0D01*
G01*
X16734800Y-9192800D02*
G75*
G03*
X16734800Y-9192800I-50000J0D01*
G01*
X16734800Y-9446800D02*
G75*
G03*
X16734800Y-9446800I-50000J0D01*
G01*
X16988800Y-9192800D02*
G75*
G03*
X16988800Y-9192800I-50000J0D01*
G01*
X16988800Y-9446800D02*
G75*
G03*
X16988800Y-9446800I-50000J0D01*
G01*
X17347400Y-7797800D02*
G75*
G03*
X17347400Y-7797800I-50000J0D01*
G01*
X17347400Y-8051800D02*
G75*
G03*
X17347400Y-8051800I-50000J0D01*
G01*
X17347400Y-8305800D02*
G75*
G03*
X17347400Y-8305800I-50000J0D01*
G01*
X17347400Y-8559800D02*
G75*
G03*
X17347400Y-8559800I-50000J0D01*
G01*
X17347400Y-8813800D02*
G75*
G03*
X17347400Y-8813800I-50000J0D01*
G01*
X17347400Y-9194800D02*
G75*
G03*
X17347400Y-9194800I-50000J0D01*
G01*
X17347400Y-9448800D02*
G75*
G03*
X17347400Y-9448800I-50000J0D01*
G01*
D13*
X12750800Y-6805900D02*
X12750800Y-6960900D01*
X12673300Y-6883400D02*
X12828300Y-6883400D01*
X12750800Y-7313900D02*
X12750800Y-7468900D01*
X12673300Y-7391400D02*
X12828300Y-7391400D01*
D11*
X12701777Y-9993884D02*
X12701777Y-9793884D01*
X12701777Y-9793884D02*
X12749396Y-9793884D01*
X12749396Y-9793884D02*
X12777967Y-9803408D01*
X12777967Y-9803408D02*
X12797015Y-9822455D01*
X12797015Y-9822455D02*
X12806539Y-9841503D01*
X12806539Y-9841503D02*
X12816062Y-9879598D01*
X12816062Y-9879598D02*
X12816062Y-9908170D01*
X12816062Y-9908170D02*
X12806539Y-9946265D01*
X12806539Y-9946265D02*
X12797015Y-9965312D01*
X12797015Y-9965312D02*
X12777967Y-9984360D01*
X12777967Y-9984360D02*
X12749396Y-9993884D01*
X12749396Y-9993884D02*
X12701777Y-9993884D01*
X12901777Y-9993884D02*
X12901777Y-9860550D01*
X12901777Y-9898646D02*
X12911301Y-9879598D01*
X12911301Y-9879598D02*
X12920824Y-9870074D01*
X12920824Y-9870074D02*
X12939872Y-9860550D01*
X12939872Y-9860550D02*
X12958920Y-9860550D01*
X13025586Y-9993884D02*
X13025586Y-9860550D01*
X13025586Y-9793884D02*
X13016062Y-9803408D01*
X13016062Y-9803408D02*
X13025586Y-9812931D01*
X13025586Y-9812931D02*
X13035110Y-9803408D01*
X13035110Y-9803408D02*
X13025586Y-9793884D01*
X13025586Y-9793884D02*
X13025586Y-9812931D01*
X13149396Y-9993884D02*
X13130348Y-9984360D01*
X13130348Y-9984360D02*
X13120824Y-9965312D01*
X13120824Y-9965312D02*
X13120824Y-9793884D01*
X13254158Y-9993884D02*
X13235110Y-9984360D01*
X13235110Y-9984360D02*
X13225586Y-9965312D01*
X13225586Y-9965312D02*
X13225586Y-9793884D01*
X13482729Y-9993884D02*
X13482729Y-9793884D01*
X13482729Y-9793884D02*
X13549396Y-9936741D01*
X13549396Y-9936741D02*
X13616062Y-9793884D01*
X13616062Y-9793884D02*
X13616062Y-9993884D01*
X13797015Y-9993884D02*
X13797015Y-9889122D01*
X13797015Y-9889122D02*
X13787491Y-9870074D01*
X13787491Y-9870074D02*
X13768443Y-9860550D01*
X13768443Y-9860550D02*
X13730348Y-9860550D01*
X13730348Y-9860550D02*
X13711301Y-9870074D01*
X13797015Y-9984360D02*
X13777967Y-9993884D01*
X13777967Y-9993884D02*
X13730348Y-9993884D01*
X13730348Y-9993884D02*
X13711301Y-9984360D01*
X13711301Y-9984360D02*
X13701777Y-9965312D01*
X13701777Y-9965312D02*
X13701777Y-9946265D01*
X13701777Y-9946265D02*
X13711301Y-9927217D01*
X13711301Y-9927217D02*
X13730348Y-9917693D01*
X13730348Y-9917693D02*
X13777967Y-9917693D01*
X13777967Y-9917693D02*
X13797015Y-9908170D01*
X13892253Y-9860550D02*
X13892253Y-10060550D01*
X13892253Y-9870074D02*
X13911301Y-9860550D01*
X13911301Y-9860550D02*
X13949396Y-9860550D01*
X13949396Y-9860550D02*
X13968443Y-9870074D01*
X13968443Y-9870074D02*
X13977967Y-9879598D01*
X13977967Y-9879598D02*
X13987491Y-9898646D01*
X13987491Y-9898646D02*
X13987491Y-9955789D01*
X13987491Y-9955789D02*
X13977967Y-9974836D01*
X13977967Y-9974836D02*
X13968443Y-9984360D01*
X13968443Y-9984360D02*
X13949396Y-9993884D01*
X13949396Y-9993884D02*
X13911301Y-9993884D01*
X13911301Y-9993884D02*
X13892253Y-9984360D01*
X14073205Y-9974836D02*
X14082729Y-9984360D01*
X14082729Y-9984360D02*
X14073205Y-9993884D01*
X14073205Y-9993884D02*
X14063682Y-9984360D01*
X14063682Y-9984360D02*
X14073205Y-9974836D01*
X14073205Y-9974836D02*
X14073205Y-9993884D01*
X14073205Y-9870074D02*
X14082729Y-9879598D01*
X14082729Y-9879598D02*
X14073205Y-9889122D01*
X14073205Y-9889122D02*
X14063682Y-9879598D01*
X14063682Y-9879598D02*
X14073205Y-9870074D01*
X14073205Y-9870074D02*
X14073205Y-9889122D01*
D12*
X12401000Y-10302400D02*
X12441000Y-10342400D01*
X12441000Y-10302400D02*
X12401000Y-10342400D01*
D11*
X12739872Y-10213884D02*
X12758920Y-10213884D01*
X12758920Y-10213884D02*
X12777967Y-10223408D01*
X12777967Y-10223408D02*
X12787491Y-10232931D01*
X12787491Y-10232931D02*
X12797015Y-10251979D01*
X12797015Y-10251979D02*
X12806539Y-10290074D01*
X12806539Y-10290074D02*
X12806539Y-10337693D01*
X12806539Y-10337693D02*
X12797015Y-10375789D01*
X12797015Y-10375789D02*
X12787491Y-10394836D01*
X12787491Y-10394836D02*
X12777967Y-10404360D01*
X12777967Y-10404360D02*
X12758920Y-10413884D01*
X12758920Y-10413884D02*
X12739872Y-10413884D01*
X12739872Y-10413884D02*
X12720824Y-10404360D01*
X12720824Y-10404360D02*
X12711301Y-10394836D01*
X12711301Y-10394836D02*
X12701777Y-10375789D01*
X12701777Y-10375789D02*
X12692253Y-10337693D01*
X12692253Y-10337693D02*
X12692253Y-10290074D01*
X12692253Y-10290074D02*
X12701777Y-10251979D01*
X12701777Y-10251979D02*
X12711301Y-10232931D01*
X12711301Y-10232931D02*
X12720824Y-10223408D01*
X12720824Y-10223408D02*
X12739872Y-10213884D01*
X12892253Y-10394836D02*
X12901777Y-10404360D01*
X12901777Y-10404360D02*
X12892253Y-10413884D01*
X12892253Y-10413884D02*
X12882729Y-10404360D01*
X12882729Y-10404360D02*
X12892253Y-10394836D01*
X12892253Y-10394836D02*
X12892253Y-10413884D01*
X13073205Y-10280550D02*
X13073205Y-10413884D01*
X13025586Y-10204360D02*
X12977967Y-10347217D01*
X12977967Y-10347217D02*
X13101777Y-10347217D01*
X13216062Y-10213884D02*
X13235110Y-10213884D01*
X13235110Y-10213884D02*
X13254158Y-10223408D01*
X13254158Y-10223408D02*
X13263682Y-10232931D01*
X13263682Y-10232931D02*
X13273205Y-10251979D01*
X13273205Y-10251979D02*
X13282729Y-10290074D01*
X13282729Y-10290074D02*
X13282729Y-10337693D01*
X13282729Y-10337693D02*
X13273205Y-10375789D01*
X13273205Y-10375789D02*
X13263682Y-10394836D01*
X13263682Y-10394836D02*
X13254158Y-10404360D01*
X13254158Y-10404360D02*
X13235110Y-10413884D01*
X13235110Y-10413884D02*
X13216062Y-10413884D01*
X13216062Y-10413884D02*
X13197015Y-10404360D01*
X13197015Y-10404360D02*
X13187491Y-10394836D01*
X13187491Y-10394836D02*
X13177967Y-10375789D01*
X13177967Y-10375789D02*
X13168443Y-10337693D01*
X13168443Y-10337693D02*
X13168443Y-10290074D01*
X13168443Y-10290074D02*
X13177967Y-10251979D01*
X13177967Y-10251979D02*
X13187491Y-10232931D01*
X13187491Y-10232931D02*
X13197015Y-10223408D01*
X13197015Y-10223408D02*
X13216062Y-10213884D01*
X13406539Y-10213884D02*
X13425586Y-10213884D01*
X13425586Y-10213884D02*
X13444634Y-10223408D01*
X13444634Y-10223408D02*
X13454158Y-10232931D01*
X13454158Y-10232931D02*
X13463682Y-10251979D01*
X13463682Y-10251979D02*
X13473205Y-10290074D01*
X13473205Y-10290074D02*
X13473205Y-10337693D01*
X13473205Y-10337693D02*
X13463682Y-10375789D01*
X13463682Y-10375789D02*
X13454158Y-10394836D01*
X13454158Y-10394836D02*
X13444634Y-10404360D01*
X13444634Y-10404360D02*
X13425586Y-10413884D01*
X13425586Y-10413884D02*
X13406539Y-10413884D01*
X13406539Y-10413884D02*
X13387491Y-10404360D01*
X13387491Y-10404360D02*
X13377967Y-10394836D01*
X13377967Y-10394836D02*
X13368443Y-10375789D01*
X13368443Y-10375789D02*
X13358920Y-10337693D01*
X13358920Y-10337693D02*
X13358920Y-10290074D01*
X13358920Y-10290074D02*
X13368443Y-10251979D01*
X13368443Y-10251979D02*
X13377967Y-10232931D01*
X13377967Y-10232931D02*
X13387491Y-10223408D01*
X13387491Y-10223408D02*
X13406539Y-10213884D01*
X13558920Y-10413884D02*
X13558920Y-10280550D01*
X13558920Y-10299598D02*
X13568443Y-10290074D01*
X13568443Y-10290074D02*
X13587491Y-10280550D01*
X13587491Y-10280550D02*
X13616063Y-10280550D01*
X13616063Y-10280550D02*
X13635110Y-10290074D01*
X13635110Y-10290074D02*
X13644634Y-10309122D01*
X13644634Y-10309122D02*
X13644634Y-10413884D01*
X13644634Y-10309122D02*
X13654158Y-10290074D01*
X13654158Y-10290074D02*
X13673205Y-10280550D01*
X13673205Y-10280550D02*
X13701777Y-10280550D01*
X13701777Y-10280550D02*
X13720824Y-10290074D01*
X13720824Y-10290074D02*
X13730348Y-10309122D01*
X13730348Y-10309122D02*
X13730348Y-10413884D01*
X13825586Y-10413884D02*
X13825586Y-10280550D01*
X13825586Y-10299598D02*
X13835110Y-10290074D01*
X13835110Y-10290074D02*
X13854158Y-10280550D01*
X13854158Y-10280550D02*
X13882729Y-10280550D01*
X13882729Y-10280550D02*
X13901777Y-10290074D01*
X13901777Y-10290074D02*
X13911301Y-10309122D01*
X13911301Y-10309122D02*
X13911301Y-10413884D01*
X13911301Y-10309122D02*
X13920824Y-10290074D01*
X13920824Y-10290074D02*
X13939872Y-10280550D01*
X13939872Y-10280550D02*
X13968443Y-10280550D01*
X13968443Y-10280550D02*
X13987491Y-10290074D01*
X13987491Y-10290074D02*
X13997015Y-10309122D01*
X13997015Y-10309122D02*
X13997015Y-10413884D01*
X14387491Y-10204360D02*
X14216063Y-10461503D01*
X14644634Y-10213884D02*
X14663682Y-10213884D01*
X14663682Y-10213884D02*
X14682729Y-10223408D01*
X14682729Y-10223408D02*
X14692253Y-10232931D01*
X14692253Y-10232931D02*
X14701777Y-10251979D01*
X14701777Y-10251979D02*
X14711301Y-10290074D01*
X14711301Y-10290074D02*
X14711301Y-10337693D01*
X14711301Y-10337693D02*
X14701777Y-10375789D01*
X14701777Y-10375789D02*
X14692253Y-10394836D01*
X14692253Y-10394836D02*
X14682729Y-10404360D01*
X14682729Y-10404360D02*
X14663682Y-10413884D01*
X14663682Y-10413884D02*
X14644634Y-10413884D01*
X14644634Y-10413884D02*
X14625586Y-10404360D01*
X14625586Y-10404360D02*
X14616063Y-10394836D01*
X14616063Y-10394836D02*
X14606539Y-10375789D01*
X14606539Y-10375789D02*
X14597015Y-10337693D01*
X14597015Y-10337693D02*
X14597015Y-10290074D01*
X14597015Y-10290074D02*
X14606539Y-10251979D01*
X14606539Y-10251979D02*
X14616063Y-10232931D01*
X14616063Y-10232931D02*
X14625586Y-10223408D01*
X14625586Y-10223408D02*
X14644634Y-10213884D01*
X14797015Y-10394836D02*
X14806539Y-10404360D01*
X14806539Y-10404360D02*
X14797015Y-10413884D01*
X14797015Y-10413884D02*
X14787491Y-10404360D01*
X14787491Y-10404360D02*
X14797015Y-10394836D01*
X14797015Y-10394836D02*
X14797015Y-10413884D01*
X14930348Y-10213884D02*
X14949396Y-10213884D01*
X14949396Y-10213884D02*
X14968444Y-10223408D01*
X14968444Y-10223408D02*
X14977967Y-10232931D01*
X14977967Y-10232931D02*
X14987491Y-10251979D01*
X14987491Y-10251979D02*
X14997015Y-10290074D01*
X14997015Y-10290074D02*
X14997015Y-10337693D01*
X14997015Y-10337693D02*
X14987491Y-10375789D01*
X14987491Y-10375789D02*
X14977967Y-10394836D01*
X14977967Y-10394836D02*
X14968444Y-10404360D01*
X14968444Y-10404360D02*
X14949396Y-10413884D01*
X14949396Y-10413884D02*
X14930348Y-10413884D01*
X14930348Y-10413884D02*
X14911301Y-10404360D01*
X14911301Y-10404360D02*
X14901777Y-10394836D01*
X14901777Y-10394836D02*
X14892253Y-10375789D01*
X14892253Y-10375789D02*
X14882729Y-10337693D01*
X14882729Y-10337693D02*
X14882729Y-10290074D01*
X14882729Y-10290074D02*
X14892253Y-10251979D01*
X14892253Y-10251979D02*
X14901777Y-10232931D01*
X14901777Y-10232931D02*
X14911301Y-10223408D01*
X14911301Y-10223408D02*
X14930348Y-10213884D01*
X15187491Y-10413884D02*
X15073206Y-10413884D01*
X15130348Y-10413884D02*
X15130348Y-10213884D01*
X15130348Y-10213884D02*
X15111301Y-10242455D01*
X15111301Y-10242455D02*
X15092253Y-10261503D01*
X15092253Y-10261503D02*
X15073206Y-10271027D01*
X15368444Y-10213884D02*
X15273206Y-10213884D01*
X15273206Y-10213884D02*
X15263682Y-10309122D01*
X15263682Y-10309122D02*
X15273206Y-10299598D01*
X15273206Y-10299598D02*
X15292253Y-10290074D01*
X15292253Y-10290074D02*
X15339872Y-10290074D01*
X15339872Y-10290074D02*
X15358920Y-10299598D01*
X15358920Y-10299598D02*
X15368444Y-10309122D01*
X15368444Y-10309122D02*
X15377967Y-10328170D01*
X15377967Y-10328170D02*
X15377967Y-10375789D01*
X15377967Y-10375789D02*
X15368444Y-10394836D01*
X15368444Y-10394836D02*
X15358920Y-10404360D01*
X15358920Y-10404360D02*
X15339872Y-10413884D01*
X15339872Y-10413884D02*
X15292253Y-10413884D01*
X15292253Y-10413884D02*
X15273206Y-10404360D01*
X15273206Y-10404360D02*
X15263682Y-10394836D01*
X15444634Y-10213884D02*
X15577967Y-10213884D01*
X15577967Y-10213884D02*
X15492253Y-10413884D01*
X15644634Y-10213884D02*
X15644634Y-10251979D01*
X15720825Y-10213884D02*
X15720825Y-10251979D01*
X16016063Y-10490074D02*
X16006539Y-10480550D01*
X16006539Y-10480550D02*
X15987491Y-10451979D01*
X15987491Y-10451979D02*
X15977968Y-10432931D01*
X15977968Y-10432931D02*
X15968444Y-10404360D01*
X15968444Y-10404360D02*
X15958920Y-10356741D01*
X15958920Y-10356741D02*
X15958920Y-10318646D01*
X15958920Y-10318646D02*
X15968444Y-10271027D01*
X15968444Y-10271027D02*
X15977968Y-10242455D01*
X15977968Y-10242455D02*
X15987491Y-10223408D01*
X15987491Y-10223408D02*
X16006539Y-10194836D01*
X16006539Y-10194836D02*
X16016063Y-10185312D01*
X16082729Y-10232931D02*
X16092253Y-10223408D01*
X16092253Y-10223408D02*
X16111301Y-10213884D01*
X16111301Y-10213884D02*
X16158920Y-10213884D01*
X16158920Y-10213884D02*
X16177968Y-10223408D01*
X16177968Y-10223408D02*
X16187491Y-10232931D01*
X16187491Y-10232931D02*
X16197015Y-10251979D01*
X16197015Y-10251979D02*
X16197015Y-10271027D01*
X16197015Y-10271027D02*
X16187491Y-10299598D01*
X16187491Y-10299598D02*
X16073206Y-10413884D01*
X16073206Y-10413884D02*
X16197015Y-10413884D01*
X16263682Y-10213884D02*
X16397015Y-10213884D01*
X16397015Y-10213884D02*
X16311301Y-10413884D01*
X16625587Y-10413884D02*
X16625587Y-10213884D01*
X16711301Y-10413884D02*
X16711301Y-10309122D01*
X16711301Y-10309122D02*
X16701777Y-10290074D01*
X16701777Y-10290074D02*
X16682730Y-10280550D01*
X16682730Y-10280550D02*
X16654158Y-10280550D01*
X16654158Y-10280550D02*
X16635110Y-10290074D01*
X16635110Y-10290074D02*
X16625587Y-10299598D01*
X16835111Y-10413884D02*
X16816063Y-10404360D01*
X16816063Y-10404360D02*
X16806539Y-10394836D01*
X16806539Y-10394836D02*
X16797015Y-10375789D01*
X16797015Y-10375789D02*
X16797015Y-10318646D01*
X16797015Y-10318646D02*
X16806539Y-10299598D01*
X16806539Y-10299598D02*
X16816063Y-10290074D01*
X16816063Y-10290074D02*
X16835111Y-10280550D01*
X16835111Y-10280550D02*
X16863682Y-10280550D01*
X16863682Y-10280550D02*
X16882730Y-10290074D01*
X16882730Y-10290074D02*
X16892253Y-10299598D01*
X16892253Y-10299598D02*
X16901777Y-10318646D01*
X16901777Y-10318646D02*
X16901777Y-10375789D01*
X16901777Y-10375789D02*
X16892253Y-10394836D01*
X16892253Y-10394836D02*
X16882730Y-10404360D01*
X16882730Y-10404360D02*
X16863682Y-10413884D01*
X16863682Y-10413884D02*
X16835111Y-10413884D01*
X17016063Y-10413884D02*
X16997015Y-10404360D01*
X16997015Y-10404360D02*
X16987492Y-10385312D01*
X16987492Y-10385312D02*
X16987492Y-10213884D01*
X17168444Y-10404360D02*
X17149396Y-10413884D01*
X17149396Y-10413884D02*
X17111301Y-10413884D01*
X17111301Y-10413884D02*
X17092253Y-10404360D01*
X17092253Y-10404360D02*
X17082730Y-10385312D01*
X17082730Y-10385312D02*
X17082730Y-10309122D01*
X17082730Y-10309122D02*
X17092253Y-10290074D01*
X17092253Y-10290074D02*
X17111301Y-10280550D01*
X17111301Y-10280550D02*
X17149396Y-10280550D01*
X17149396Y-10280550D02*
X17168444Y-10290074D01*
X17168444Y-10290074D02*
X17177968Y-10309122D01*
X17177968Y-10309122D02*
X17177968Y-10328170D01*
X17177968Y-10328170D02*
X17082730Y-10347217D01*
X17254158Y-10404360D02*
X17273206Y-10413884D01*
X17273206Y-10413884D02*
X17311301Y-10413884D01*
X17311301Y-10413884D02*
X17330349Y-10404360D01*
X17330349Y-10404360D02*
X17339873Y-10385312D01*
X17339873Y-10385312D02*
X17339873Y-10375789D01*
X17339873Y-10375789D02*
X17330349Y-10356741D01*
X17330349Y-10356741D02*
X17311301Y-10347217D01*
X17311301Y-10347217D02*
X17282730Y-10347217D01*
X17282730Y-10347217D02*
X17263682Y-10337693D01*
X17263682Y-10337693D02*
X17254158Y-10318646D01*
X17254158Y-10318646D02*
X17254158Y-10309122D01*
X17254158Y-10309122D02*
X17263682Y-10290074D01*
X17263682Y-10290074D02*
X17282730Y-10280550D01*
X17282730Y-10280550D02*
X17311301Y-10280550D01*
X17311301Y-10280550D02*
X17330349Y-10290074D01*
X17406539Y-10490074D02*
X17416063Y-10480550D01*
X17416063Y-10480550D02*
X17435111Y-10451979D01*
X17435111Y-10451979D02*
X17444634Y-10432931D01*
X17444634Y-10432931D02*
X17454158Y-10404360D01*
X17454158Y-10404360D02*
X17463682Y-10356741D01*
X17463682Y-10356741D02*
X17463682Y-10318646D01*
X17463682Y-10318646D02*
X17454158Y-10271027D01*
X17454158Y-10271027D02*
X17444634Y-10242455D01*
X17444634Y-10242455D02*
X17435111Y-10223408D01*
X17435111Y-10223408D02*
X17416063Y-10194836D01*
X17416063Y-10194836D02*
X17406539Y-10185312D01*
D10*
X12441000Y-10586400D02*
G75*
G03*
X12441000Y-10586400I-50000J0D01*
G01*
D11*
X12806539Y-10677884D02*
X12692253Y-10677884D01*
X12749396Y-10677884D02*
X12749396Y-10477884D01*
X12749396Y-10477884D02*
X12730348Y-10506455D01*
X12730348Y-10506455D02*
X12711301Y-10525503D01*
X12711301Y-10525503D02*
X12692253Y-10535027D01*
X12892253Y-10658836D02*
X12901777Y-10668360D01*
X12901777Y-10668360D02*
X12892253Y-10677884D01*
X12892253Y-10677884D02*
X12882729Y-10668360D01*
X12882729Y-10668360D02*
X12892253Y-10658836D01*
X12892253Y-10658836D02*
X12892253Y-10677884D01*
X13025586Y-10477884D02*
X13044634Y-10477884D01*
X13044634Y-10477884D02*
X13063682Y-10487408D01*
X13063682Y-10487408D02*
X13073205Y-10496931D01*
X13073205Y-10496931D02*
X13082729Y-10515979D01*
X13082729Y-10515979D02*
X13092253Y-10554074D01*
X13092253Y-10554074D02*
X13092253Y-10601693D01*
X13092253Y-10601693D02*
X13082729Y-10639789D01*
X13082729Y-10639789D02*
X13073205Y-10658836D01*
X13073205Y-10658836D02*
X13063682Y-10668360D01*
X13063682Y-10668360D02*
X13044634Y-10677884D01*
X13044634Y-10677884D02*
X13025586Y-10677884D01*
X13025586Y-10677884D02*
X13006539Y-10668360D01*
X13006539Y-10668360D02*
X12997015Y-10658836D01*
X12997015Y-10658836D02*
X12987491Y-10639789D01*
X12987491Y-10639789D02*
X12977967Y-10601693D01*
X12977967Y-10601693D02*
X12977967Y-10554074D01*
X12977967Y-10554074D02*
X12987491Y-10515979D01*
X12987491Y-10515979D02*
X12997015Y-10496931D01*
X12997015Y-10496931D02*
X13006539Y-10487408D01*
X13006539Y-10487408D02*
X13025586Y-10477884D01*
X13216062Y-10477884D02*
X13235110Y-10477884D01*
X13235110Y-10477884D02*
X13254158Y-10487408D01*
X13254158Y-10487408D02*
X13263682Y-10496931D01*
X13263682Y-10496931D02*
X13273205Y-10515979D01*
X13273205Y-10515979D02*
X13282729Y-10554074D01*
X13282729Y-10554074D02*
X13282729Y-10601693D01*
X13282729Y-10601693D02*
X13273205Y-10639789D01*
X13273205Y-10639789D02*
X13263682Y-10658836D01*
X13263682Y-10658836D02*
X13254158Y-10668360D01*
X13254158Y-10668360D02*
X13235110Y-10677884D01*
X13235110Y-10677884D02*
X13216062Y-10677884D01*
X13216062Y-10677884D02*
X13197015Y-10668360D01*
X13197015Y-10668360D02*
X13187491Y-10658836D01*
X13187491Y-10658836D02*
X13177967Y-10639789D01*
X13177967Y-10639789D02*
X13168443Y-10601693D01*
X13168443Y-10601693D02*
X13168443Y-10554074D01*
X13168443Y-10554074D02*
X13177967Y-10515979D01*
X13177967Y-10515979D02*
X13187491Y-10496931D01*
X13187491Y-10496931D02*
X13197015Y-10487408D01*
X13197015Y-10487408D02*
X13216062Y-10477884D01*
X13406539Y-10477884D02*
X13425586Y-10477884D01*
X13425586Y-10477884D02*
X13444634Y-10487408D01*
X13444634Y-10487408D02*
X13454158Y-10496931D01*
X13454158Y-10496931D02*
X13463682Y-10515979D01*
X13463682Y-10515979D02*
X13473205Y-10554074D01*
X13473205Y-10554074D02*
X13473205Y-10601693D01*
X13473205Y-10601693D02*
X13463682Y-10639789D01*
X13463682Y-10639789D02*
X13454158Y-10658836D01*
X13454158Y-10658836D02*
X13444634Y-10668360D01*
X13444634Y-10668360D02*
X13425586Y-10677884D01*
X13425586Y-10677884D02*
X13406539Y-10677884D01*
X13406539Y-10677884D02*
X13387491Y-10668360D01*
X13387491Y-10668360D02*
X13377967Y-10658836D01*
X13377967Y-10658836D02*
X13368443Y-10639789D01*
X13368443Y-10639789D02*
X13358920Y-10601693D01*
X13358920Y-10601693D02*
X13358920Y-10554074D01*
X13358920Y-10554074D02*
X13368443Y-10515979D01*
X13368443Y-10515979D02*
X13377967Y-10496931D01*
X13377967Y-10496931D02*
X13387491Y-10487408D01*
X13387491Y-10487408D02*
X13406539Y-10477884D01*
X13558920Y-10677884D02*
X13558920Y-10544550D01*
X13558920Y-10563598D02*
X13568443Y-10554074D01*
X13568443Y-10554074D02*
X13587491Y-10544550D01*
X13587491Y-10544550D02*
X13616063Y-10544550D01*
X13616063Y-10544550D02*
X13635110Y-10554074D01*
X13635110Y-10554074D02*
X13644634Y-10573122D01*
X13644634Y-10573122D02*
X13644634Y-10677884D01*
X13644634Y-10573122D02*
X13654158Y-10554074D01*
X13654158Y-10554074D02*
X13673205Y-10544550D01*
X13673205Y-10544550D02*
X13701777Y-10544550D01*
X13701777Y-10544550D02*
X13720824Y-10554074D01*
X13720824Y-10554074D02*
X13730348Y-10573122D01*
X13730348Y-10573122D02*
X13730348Y-10677884D01*
X13825586Y-10677884D02*
X13825586Y-10544550D01*
X13825586Y-10563598D02*
X13835110Y-10554074D01*
X13835110Y-10554074D02*
X13854158Y-10544550D01*
X13854158Y-10544550D02*
X13882729Y-10544550D01*
X13882729Y-10544550D02*
X13901777Y-10554074D01*
X13901777Y-10554074D02*
X13911301Y-10573122D01*
X13911301Y-10573122D02*
X13911301Y-10677884D01*
X13911301Y-10573122D02*
X13920824Y-10554074D01*
X13920824Y-10554074D02*
X13939872Y-10544550D01*
X13939872Y-10544550D02*
X13968443Y-10544550D01*
X13968443Y-10544550D02*
X13987491Y-10554074D01*
X13987491Y-10554074D02*
X13997015Y-10573122D01*
X13997015Y-10573122D02*
X13997015Y-10677884D01*
X14387491Y-10468360D02*
X14216063Y-10725503D01*
X14644634Y-10477884D02*
X14663682Y-10477884D01*
X14663682Y-10477884D02*
X14682729Y-10487408D01*
X14682729Y-10487408D02*
X14692253Y-10496931D01*
X14692253Y-10496931D02*
X14701777Y-10515979D01*
X14701777Y-10515979D02*
X14711301Y-10554074D01*
X14711301Y-10554074D02*
X14711301Y-10601693D01*
X14711301Y-10601693D02*
X14701777Y-10639789D01*
X14701777Y-10639789D02*
X14692253Y-10658836D01*
X14692253Y-10658836D02*
X14682729Y-10668360D01*
X14682729Y-10668360D02*
X14663682Y-10677884D01*
X14663682Y-10677884D02*
X14644634Y-10677884D01*
X14644634Y-10677884D02*
X14625586Y-10668360D01*
X14625586Y-10668360D02*
X14616063Y-10658836D01*
X14616063Y-10658836D02*
X14606539Y-10639789D01*
X14606539Y-10639789D02*
X14597015Y-10601693D01*
X14597015Y-10601693D02*
X14597015Y-10554074D01*
X14597015Y-10554074D02*
X14606539Y-10515979D01*
X14606539Y-10515979D02*
X14616063Y-10496931D01*
X14616063Y-10496931D02*
X14625586Y-10487408D01*
X14625586Y-10487408D02*
X14644634Y-10477884D01*
X14797015Y-10658836D02*
X14806539Y-10668360D01*
X14806539Y-10668360D02*
X14797015Y-10677884D01*
X14797015Y-10677884D02*
X14787491Y-10668360D01*
X14787491Y-10668360D02*
X14797015Y-10658836D01*
X14797015Y-10658836D02*
X14797015Y-10677884D01*
X14930348Y-10477884D02*
X14949396Y-10477884D01*
X14949396Y-10477884D02*
X14968444Y-10487408D01*
X14968444Y-10487408D02*
X14977967Y-10496931D01*
X14977967Y-10496931D02*
X14987491Y-10515979D01*
X14987491Y-10515979D02*
X14997015Y-10554074D01*
X14997015Y-10554074D02*
X14997015Y-10601693D01*
X14997015Y-10601693D02*
X14987491Y-10639789D01*
X14987491Y-10639789D02*
X14977967Y-10658836D01*
X14977967Y-10658836D02*
X14968444Y-10668360D01*
X14968444Y-10668360D02*
X14949396Y-10677884D01*
X14949396Y-10677884D02*
X14930348Y-10677884D01*
X14930348Y-10677884D02*
X14911301Y-10668360D01*
X14911301Y-10668360D02*
X14901777Y-10658836D01*
X14901777Y-10658836D02*
X14892253Y-10639789D01*
X14892253Y-10639789D02*
X14882729Y-10601693D01*
X14882729Y-10601693D02*
X14882729Y-10554074D01*
X14882729Y-10554074D02*
X14892253Y-10515979D01*
X14892253Y-10515979D02*
X14901777Y-10496931D01*
X14901777Y-10496931D02*
X14911301Y-10487408D01*
X14911301Y-10487408D02*
X14930348Y-10477884D01*
X15063682Y-10477884D02*
X15187491Y-10477884D01*
X15187491Y-10477884D02*
X15120825Y-10554074D01*
X15120825Y-10554074D02*
X15149396Y-10554074D01*
X15149396Y-10554074D02*
X15168444Y-10563598D01*
X15168444Y-10563598D02*
X15177967Y-10573122D01*
X15177967Y-10573122D02*
X15187491Y-10592170D01*
X15187491Y-10592170D02*
X15187491Y-10639789D01*
X15187491Y-10639789D02*
X15177967Y-10658836D01*
X15177967Y-10658836D02*
X15168444Y-10668360D01*
X15168444Y-10668360D02*
X15149396Y-10677884D01*
X15149396Y-10677884D02*
X15092253Y-10677884D01*
X15092253Y-10677884D02*
X15073206Y-10668360D01*
X15073206Y-10668360D02*
X15063682Y-10658836D01*
X15282729Y-10677884D02*
X15320825Y-10677884D01*
X15320825Y-10677884D02*
X15339872Y-10668360D01*
X15339872Y-10668360D02*
X15349396Y-10658836D01*
X15349396Y-10658836D02*
X15368444Y-10630265D01*
X15368444Y-10630265D02*
X15377967Y-10592170D01*
X15377967Y-10592170D02*
X15377967Y-10515979D01*
X15377967Y-10515979D02*
X15368444Y-10496931D01*
X15368444Y-10496931D02*
X15358920Y-10487408D01*
X15358920Y-10487408D02*
X15339872Y-10477884D01*
X15339872Y-10477884D02*
X15301777Y-10477884D01*
X15301777Y-10477884D02*
X15282729Y-10487408D01*
X15282729Y-10487408D02*
X15273206Y-10496931D01*
X15273206Y-10496931D02*
X15263682Y-10515979D01*
X15263682Y-10515979D02*
X15263682Y-10563598D01*
X15263682Y-10563598D02*
X15273206Y-10582646D01*
X15273206Y-10582646D02*
X15282729Y-10592170D01*
X15282729Y-10592170D02*
X15301777Y-10601693D01*
X15301777Y-10601693D02*
X15339872Y-10601693D01*
X15339872Y-10601693D02*
X15358920Y-10592170D01*
X15358920Y-10592170D02*
X15368444Y-10582646D01*
X15368444Y-10582646D02*
X15377967Y-10563598D01*
X15549396Y-10544550D02*
X15549396Y-10677884D01*
X15501777Y-10468360D02*
X15454158Y-10611217D01*
X15454158Y-10611217D02*
X15577967Y-10611217D01*
X15644634Y-10477884D02*
X15644634Y-10515979D01*
X15720825Y-10477884D02*
X15720825Y-10515979D01*
X16016063Y-10754074D02*
X16006539Y-10744550D01*
X16006539Y-10744550D02*
X15987491Y-10715979D01*
X15987491Y-10715979D02*
X15977968Y-10696931D01*
X15977968Y-10696931D02*
X15968444Y-10668360D01*
X15968444Y-10668360D02*
X15958920Y-10620741D01*
X15958920Y-10620741D02*
X15958920Y-10582646D01*
X15958920Y-10582646D02*
X15968444Y-10535027D01*
X15968444Y-10535027D02*
X15977968Y-10506455D01*
X15977968Y-10506455D02*
X15987491Y-10487408D01*
X15987491Y-10487408D02*
X16006539Y-10458836D01*
X16006539Y-10458836D02*
X16016063Y-10449312D01*
X16197015Y-10677884D02*
X16082729Y-10677884D01*
X16139872Y-10677884D02*
X16139872Y-10477884D01*
X16139872Y-10477884D02*
X16120825Y-10506455D01*
X16120825Y-10506455D02*
X16101777Y-10525503D01*
X16101777Y-10525503D02*
X16082729Y-10535027D01*
X16292253Y-10677884D02*
X16330348Y-10677884D01*
X16330348Y-10677884D02*
X16349396Y-10668360D01*
X16349396Y-10668360D02*
X16358920Y-10658836D01*
X16358920Y-10658836D02*
X16377968Y-10630265D01*
X16377968Y-10630265D02*
X16387491Y-10592170D01*
X16387491Y-10592170D02*
X16387491Y-10515979D01*
X16387491Y-10515979D02*
X16377968Y-10496931D01*
X16377968Y-10496931D02*
X16368444Y-10487408D01*
X16368444Y-10487408D02*
X16349396Y-10477884D01*
X16349396Y-10477884D02*
X16311301Y-10477884D01*
X16311301Y-10477884D02*
X16292253Y-10487408D01*
X16292253Y-10487408D02*
X16282729Y-10496931D01*
X16282729Y-10496931D02*
X16273206Y-10515979D01*
X16273206Y-10515979D02*
X16273206Y-10563598D01*
X16273206Y-10563598D02*
X16282729Y-10582646D01*
X16282729Y-10582646D02*
X16292253Y-10592170D01*
X16292253Y-10592170D02*
X16311301Y-10601693D01*
X16311301Y-10601693D02*
X16349396Y-10601693D01*
X16349396Y-10601693D02*
X16368444Y-10592170D01*
X16368444Y-10592170D02*
X16377968Y-10582646D01*
X16377968Y-10582646D02*
X16387491Y-10563598D01*
X16625587Y-10677884D02*
X16625587Y-10477884D01*
X16711301Y-10677884D02*
X16711301Y-10573122D01*
X16711301Y-10573122D02*
X16701777Y-10554074D01*
X16701777Y-10554074D02*
X16682730Y-10544550D01*
X16682730Y-10544550D02*
X16654158Y-10544550D01*
X16654158Y-10544550D02*
X16635110Y-10554074D01*
X16635110Y-10554074D02*
X16625587Y-10563598D01*
X16835111Y-10677884D02*
X16816063Y-10668360D01*
X16816063Y-10668360D02*
X16806539Y-10658836D01*
X16806539Y-10658836D02*
X16797015Y-10639789D01*
X16797015Y-10639789D02*
X16797015Y-10582646D01*
X16797015Y-10582646D02*
X16806539Y-10563598D01*
X16806539Y-10563598D02*
X16816063Y-10554074D01*
X16816063Y-10554074D02*
X16835111Y-10544550D01*
X16835111Y-10544550D02*
X16863682Y-10544550D01*
X16863682Y-10544550D02*
X16882730Y-10554074D01*
X16882730Y-10554074D02*
X16892253Y-10563598D01*
X16892253Y-10563598D02*
X16901777Y-10582646D01*
X16901777Y-10582646D02*
X16901777Y-10639789D01*
X16901777Y-10639789D02*
X16892253Y-10658836D01*
X16892253Y-10658836D02*
X16882730Y-10668360D01*
X16882730Y-10668360D02*
X16863682Y-10677884D01*
X16863682Y-10677884D02*
X16835111Y-10677884D01*
X17016063Y-10677884D02*
X16997015Y-10668360D01*
X16997015Y-10668360D02*
X16987492Y-10649312D01*
X16987492Y-10649312D02*
X16987492Y-10477884D01*
X17168444Y-10668360D02*
X17149396Y-10677884D01*
X17149396Y-10677884D02*
X17111301Y-10677884D01*
X17111301Y-10677884D02*
X17092253Y-10668360D01*
X17092253Y-10668360D02*
X17082730Y-10649312D01*
X17082730Y-10649312D02*
X17082730Y-10573122D01*
X17082730Y-10573122D02*
X17092253Y-10554074D01*
X17092253Y-10554074D02*
X17111301Y-10544550D01*
X17111301Y-10544550D02*
X17149396Y-10544550D01*
X17149396Y-10544550D02*
X17168444Y-10554074D01*
X17168444Y-10554074D02*
X17177968Y-10573122D01*
X17177968Y-10573122D02*
X17177968Y-10592170D01*
X17177968Y-10592170D02*
X17082730Y-10611217D01*
X17254158Y-10668360D02*
X17273206Y-10677884D01*
X17273206Y-10677884D02*
X17311301Y-10677884D01*
X17311301Y-10677884D02*
X17330349Y-10668360D01*
X17330349Y-10668360D02*
X17339873Y-10649312D01*
X17339873Y-10649312D02*
X17339873Y-10639789D01*
X17339873Y-10639789D02*
X17330349Y-10620741D01*
X17330349Y-10620741D02*
X17311301Y-10611217D01*
X17311301Y-10611217D02*
X17282730Y-10611217D01*
X17282730Y-10611217D02*
X17263682Y-10601693D01*
X17263682Y-10601693D02*
X17254158Y-10582646D01*
X17254158Y-10582646D02*
X17254158Y-10573122D01*
X17254158Y-10573122D02*
X17263682Y-10554074D01*
X17263682Y-10554074D02*
X17282730Y-10544550D01*
X17282730Y-10544550D02*
X17311301Y-10544550D01*
X17311301Y-10544550D02*
X17330349Y-10554074D01*
X17406539Y-10754074D02*
X17416063Y-10744550D01*
X17416063Y-10744550D02*
X17435111Y-10715979D01*
X17435111Y-10715979D02*
X17444634Y-10696931D01*
X17444634Y-10696931D02*
X17454158Y-10668360D01*
X17454158Y-10668360D02*
X17463682Y-10620741D01*
X17463682Y-10620741D02*
X17463682Y-10582646D01*
X17463682Y-10582646D02*
X17454158Y-10535027D01*
X17454158Y-10535027D02*
X17444634Y-10506455D01*
X17444634Y-10506455D02*
X17435111Y-10487408D01*
X17435111Y-10487408D02*
X17416063Y-10458836D01*
X17416063Y-10458836D02*
X17406539Y-10449312D01*
D13*
X12363500Y-10772900D02*
X12363500Y-10927900D01*
X12286000Y-10850400D02*
X12441000Y-10850400D01*
D11*
X12806539Y-10941884D02*
X12692253Y-10941884D01*
X12749396Y-10941884D02*
X12749396Y-10741884D01*
X12749396Y-10741884D02*
X12730348Y-10770455D01*
X12730348Y-10770455D02*
X12711301Y-10789503D01*
X12711301Y-10789503D02*
X12692253Y-10799027D01*
X12892253Y-10922836D02*
X12901777Y-10932360D01*
X12901777Y-10932360D02*
X12892253Y-10941884D01*
X12892253Y-10941884D02*
X12882729Y-10932360D01*
X12882729Y-10932360D02*
X12892253Y-10922836D01*
X12892253Y-10922836D02*
X12892253Y-10941884D01*
X13082729Y-10741884D02*
X12987491Y-10741884D01*
X12987491Y-10741884D02*
X12977967Y-10837122D01*
X12977967Y-10837122D02*
X12987491Y-10827598D01*
X12987491Y-10827598D02*
X13006539Y-10818074D01*
X13006539Y-10818074D02*
X13054158Y-10818074D01*
X13054158Y-10818074D02*
X13073205Y-10827598D01*
X13073205Y-10827598D02*
X13082729Y-10837122D01*
X13082729Y-10837122D02*
X13092253Y-10856170D01*
X13092253Y-10856170D02*
X13092253Y-10903789D01*
X13092253Y-10903789D02*
X13082729Y-10922836D01*
X13082729Y-10922836D02*
X13073205Y-10932360D01*
X13073205Y-10932360D02*
X13054158Y-10941884D01*
X13054158Y-10941884D02*
X13006539Y-10941884D01*
X13006539Y-10941884D02*
X12987491Y-10932360D01*
X12987491Y-10932360D02*
X12977967Y-10922836D01*
X13273205Y-10741884D02*
X13177967Y-10741884D01*
X13177967Y-10741884D02*
X13168443Y-10837122D01*
X13168443Y-10837122D02*
X13177967Y-10827598D01*
X13177967Y-10827598D02*
X13197015Y-10818074D01*
X13197015Y-10818074D02*
X13244634Y-10818074D01*
X13244634Y-10818074D02*
X13263682Y-10827598D01*
X13263682Y-10827598D02*
X13273205Y-10837122D01*
X13273205Y-10837122D02*
X13282729Y-10856170D01*
X13282729Y-10856170D02*
X13282729Y-10903789D01*
X13282729Y-10903789D02*
X13273205Y-10922836D01*
X13273205Y-10922836D02*
X13263682Y-10932360D01*
X13263682Y-10932360D02*
X13244634Y-10941884D01*
X13244634Y-10941884D02*
X13197015Y-10941884D01*
X13197015Y-10941884D02*
X13177967Y-10932360D01*
X13177967Y-10932360D02*
X13168443Y-10922836D01*
X13406539Y-10741884D02*
X13425586Y-10741884D01*
X13425586Y-10741884D02*
X13444634Y-10751408D01*
X13444634Y-10751408D02*
X13454158Y-10760931D01*
X13454158Y-10760931D02*
X13463682Y-10779979D01*
X13463682Y-10779979D02*
X13473205Y-10818074D01*
X13473205Y-10818074D02*
X13473205Y-10865693D01*
X13473205Y-10865693D02*
X13463682Y-10903789D01*
X13463682Y-10903789D02*
X13454158Y-10922836D01*
X13454158Y-10922836D02*
X13444634Y-10932360D01*
X13444634Y-10932360D02*
X13425586Y-10941884D01*
X13425586Y-10941884D02*
X13406539Y-10941884D01*
X13406539Y-10941884D02*
X13387491Y-10932360D01*
X13387491Y-10932360D02*
X13377967Y-10922836D01*
X13377967Y-10922836D02*
X13368443Y-10903789D01*
X13368443Y-10903789D02*
X13358920Y-10865693D01*
X13358920Y-10865693D02*
X13358920Y-10818074D01*
X13358920Y-10818074D02*
X13368443Y-10779979D01*
X13368443Y-10779979D02*
X13377967Y-10760931D01*
X13377967Y-10760931D02*
X13387491Y-10751408D01*
X13387491Y-10751408D02*
X13406539Y-10741884D01*
X13558920Y-10941884D02*
X13558920Y-10808550D01*
X13558920Y-10827598D02*
X13568443Y-10818074D01*
X13568443Y-10818074D02*
X13587491Y-10808550D01*
X13587491Y-10808550D02*
X13616063Y-10808550D01*
X13616063Y-10808550D02*
X13635110Y-10818074D01*
X13635110Y-10818074D02*
X13644634Y-10837122D01*
X13644634Y-10837122D02*
X13644634Y-10941884D01*
X13644634Y-10837122D02*
X13654158Y-10818074D01*
X13654158Y-10818074D02*
X13673205Y-10808550D01*
X13673205Y-10808550D02*
X13701777Y-10808550D01*
X13701777Y-10808550D02*
X13720824Y-10818074D01*
X13720824Y-10818074D02*
X13730348Y-10837122D01*
X13730348Y-10837122D02*
X13730348Y-10941884D01*
X13825586Y-10941884D02*
X13825586Y-10808550D01*
X13825586Y-10827598D02*
X13835110Y-10818074D01*
X13835110Y-10818074D02*
X13854158Y-10808550D01*
X13854158Y-10808550D02*
X13882729Y-10808550D01*
X13882729Y-10808550D02*
X13901777Y-10818074D01*
X13901777Y-10818074D02*
X13911301Y-10837122D01*
X13911301Y-10837122D02*
X13911301Y-10941884D01*
X13911301Y-10837122D02*
X13920824Y-10818074D01*
X13920824Y-10818074D02*
X13939872Y-10808550D01*
X13939872Y-10808550D02*
X13968443Y-10808550D01*
X13968443Y-10808550D02*
X13987491Y-10818074D01*
X13987491Y-10818074D02*
X13997015Y-10837122D01*
X13997015Y-10837122D02*
X13997015Y-10941884D01*
X14387491Y-10732360D02*
X14216063Y-10989503D01*
X14644634Y-10741884D02*
X14663682Y-10741884D01*
X14663682Y-10741884D02*
X14682729Y-10751408D01*
X14682729Y-10751408D02*
X14692253Y-10760931D01*
X14692253Y-10760931D02*
X14701777Y-10779979D01*
X14701777Y-10779979D02*
X14711301Y-10818074D01*
X14711301Y-10818074D02*
X14711301Y-10865693D01*
X14711301Y-10865693D02*
X14701777Y-10903789D01*
X14701777Y-10903789D02*
X14692253Y-10922836D01*
X14692253Y-10922836D02*
X14682729Y-10932360D01*
X14682729Y-10932360D02*
X14663682Y-10941884D01*
X14663682Y-10941884D02*
X14644634Y-10941884D01*
X14644634Y-10941884D02*
X14625586Y-10932360D01*
X14625586Y-10932360D02*
X14616063Y-10922836D01*
X14616063Y-10922836D02*
X14606539Y-10903789D01*
X14606539Y-10903789D02*
X14597015Y-10865693D01*
X14597015Y-10865693D02*
X14597015Y-10818074D01*
X14597015Y-10818074D02*
X14606539Y-10779979D01*
X14606539Y-10779979D02*
X14616063Y-10760931D01*
X14616063Y-10760931D02*
X14625586Y-10751408D01*
X14625586Y-10751408D02*
X14644634Y-10741884D01*
X14797015Y-10922836D02*
X14806539Y-10932360D01*
X14806539Y-10932360D02*
X14797015Y-10941884D01*
X14797015Y-10941884D02*
X14787491Y-10932360D01*
X14787491Y-10932360D02*
X14797015Y-10922836D01*
X14797015Y-10922836D02*
X14797015Y-10941884D01*
X14930348Y-10741884D02*
X14949396Y-10741884D01*
X14949396Y-10741884D02*
X14968444Y-10751408D01*
X14968444Y-10751408D02*
X14977967Y-10760931D01*
X14977967Y-10760931D02*
X14987491Y-10779979D01*
X14987491Y-10779979D02*
X14997015Y-10818074D01*
X14997015Y-10818074D02*
X14997015Y-10865693D01*
X14997015Y-10865693D02*
X14987491Y-10903789D01*
X14987491Y-10903789D02*
X14977967Y-10922836D01*
X14977967Y-10922836D02*
X14968444Y-10932360D01*
X14968444Y-10932360D02*
X14949396Y-10941884D01*
X14949396Y-10941884D02*
X14930348Y-10941884D01*
X14930348Y-10941884D02*
X14911301Y-10932360D01*
X14911301Y-10932360D02*
X14901777Y-10922836D01*
X14901777Y-10922836D02*
X14892253Y-10903789D01*
X14892253Y-10903789D02*
X14882729Y-10865693D01*
X14882729Y-10865693D02*
X14882729Y-10818074D01*
X14882729Y-10818074D02*
X14892253Y-10779979D01*
X14892253Y-10779979D02*
X14901777Y-10760931D01*
X14901777Y-10760931D02*
X14911301Y-10751408D01*
X14911301Y-10751408D02*
X14930348Y-10741884D01*
X15168444Y-10741884D02*
X15130348Y-10741884D01*
X15130348Y-10741884D02*
X15111301Y-10751408D01*
X15111301Y-10751408D02*
X15101777Y-10760931D01*
X15101777Y-10760931D02*
X15082729Y-10789503D01*
X15082729Y-10789503D02*
X15073206Y-10827598D01*
X15073206Y-10827598D02*
X15073206Y-10903789D01*
X15073206Y-10903789D02*
X15082729Y-10922836D01*
X15082729Y-10922836D02*
X15092253Y-10932360D01*
X15092253Y-10932360D02*
X15111301Y-10941884D01*
X15111301Y-10941884D02*
X15149396Y-10941884D01*
X15149396Y-10941884D02*
X15168444Y-10932360D01*
X15168444Y-10932360D02*
X15177967Y-10922836D01*
X15177967Y-10922836D02*
X15187491Y-10903789D01*
X15187491Y-10903789D02*
X15187491Y-10856170D01*
X15187491Y-10856170D02*
X15177967Y-10837122D01*
X15177967Y-10837122D02*
X15168444Y-10827598D01*
X15168444Y-10827598D02*
X15149396Y-10818074D01*
X15149396Y-10818074D02*
X15111301Y-10818074D01*
X15111301Y-10818074D02*
X15092253Y-10827598D01*
X15092253Y-10827598D02*
X15082729Y-10837122D01*
X15082729Y-10837122D02*
X15073206Y-10856170D01*
X15377967Y-10941884D02*
X15263682Y-10941884D01*
X15320825Y-10941884D02*
X15320825Y-10741884D01*
X15320825Y-10741884D02*
X15301777Y-10770455D01*
X15301777Y-10770455D02*
X15282729Y-10789503D01*
X15282729Y-10789503D02*
X15263682Y-10799027D01*
X15501777Y-10741884D02*
X15520825Y-10741884D01*
X15520825Y-10741884D02*
X15539872Y-10751408D01*
X15539872Y-10751408D02*
X15549396Y-10760931D01*
X15549396Y-10760931D02*
X15558920Y-10779979D01*
X15558920Y-10779979D02*
X15568444Y-10818074D01*
X15568444Y-10818074D02*
X15568444Y-10865693D01*
X15568444Y-10865693D02*
X15558920Y-10903789D01*
X15558920Y-10903789D02*
X15549396Y-10922836D01*
X15549396Y-10922836D02*
X15539872Y-10932360D01*
X15539872Y-10932360D02*
X15520825Y-10941884D01*
X15520825Y-10941884D02*
X15501777Y-10941884D01*
X15501777Y-10941884D02*
X15482729Y-10932360D01*
X15482729Y-10932360D02*
X15473206Y-10922836D01*
X15473206Y-10922836D02*
X15463682Y-10903789D01*
X15463682Y-10903789D02*
X15454158Y-10865693D01*
X15454158Y-10865693D02*
X15454158Y-10818074D01*
X15454158Y-10818074D02*
X15463682Y-10779979D01*
X15463682Y-10779979D02*
X15473206Y-10760931D01*
X15473206Y-10760931D02*
X15482729Y-10751408D01*
X15482729Y-10751408D02*
X15501777Y-10741884D01*
X15644634Y-10741884D02*
X15644634Y-10779979D01*
X15720825Y-10741884D02*
X15720825Y-10779979D01*
X16016063Y-11018074D02*
X16006539Y-11008550D01*
X16006539Y-11008550D02*
X15987491Y-10979979D01*
X15987491Y-10979979D02*
X15977968Y-10960931D01*
X15977968Y-10960931D02*
X15968444Y-10932360D01*
X15968444Y-10932360D02*
X15958920Y-10884741D01*
X15958920Y-10884741D02*
X15958920Y-10846646D01*
X15958920Y-10846646D02*
X15968444Y-10799027D01*
X15968444Y-10799027D02*
X15977968Y-10770455D01*
X15977968Y-10770455D02*
X15987491Y-10751408D01*
X15987491Y-10751408D02*
X16006539Y-10722836D01*
X16006539Y-10722836D02*
X16016063Y-10713312D01*
X16082729Y-10760931D02*
X16092253Y-10751408D01*
X16092253Y-10751408D02*
X16111301Y-10741884D01*
X16111301Y-10741884D02*
X16158920Y-10741884D01*
X16158920Y-10741884D02*
X16177968Y-10751408D01*
X16177968Y-10751408D02*
X16187491Y-10760931D01*
X16187491Y-10760931D02*
X16197015Y-10779979D01*
X16197015Y-10779979D02*
X16197015Y-10799027D01*
X16197015Y-10799027D02*
X16187491Y-10827598D01*
X16187491Y-10827598D02*
X16073206Y-10941884D01*
X16073206Y-10941884D02*
X16197015Y-10941884D01*
X16435110Y-10941884D02*
X16435110Y-10741884D01*
X16520825Y-10941884D02*
X16520825Y-10837122D01*
X16520825Y-10837122D02*
X16511301Y-10818074D01*
X16511301Y-10818074D02*
X16492253Y-10808550D01*
X16492253Y-10808550D02*
X16463682Y-10808550D01*
X16463682Y-10808550D02*
X16444634Y-10818074D01*
X16444634Y-10818074D02*
X16435110Y-10827598D01*
X16644634Y-10941884D02*
X16625587Y-10932360D01*
X16625587Y-10932360D02*
X16616063Y-10922836D01*
X16616063Y-10922836D02*
X16606539Y-10903789D01*
X16606539Y-10903789D02*
X16606539Y-10846646D01*
X16606539Y-10846646D02*
X16616063Y-10827598D01*
X16616063Y-10827598D02*
X16625587Y-10818074D01*
X16625587Y-10818074D02*
X16644634Y-10808550D01*
X16644634Y-10808550D02*
X16673206Y-10808550D01*
X16673206Y-10808550D02*
X16692253Y-10818074D01*
X16692253Y-10818074D02*
X16701777Y-10827598D01*
X16701777Y-10827598D02*
X16711301Y-10846646D01*
X16711301Y-10846646D02*
X16711301Y-10903789D01*
X16711301Y-10903789D02*
X16701777Y-10922836D01*
X16701777Y-10922836D02*
X16692253Y-10932360D01*
X16692253Y-10932360D02*
X16673206Y-10941884D01*
X16673206Y-10941884D02*
X16644634Y-10941884D01*
X16825587Y-10941884D02*
X16806539Y-10932360D01*
X16806539Y-10932360D02*
X16797015Y-10913312D01*
X16797015Y-10913312D02*
X16797015Y-10741884D01*
X16977968Y-10932360D02*
X16958920Y-10941884D01*
X16958920Y-10941884D02*
X16920825Y-10941884D01*
X16920825Y-10941884D02*
X16901777Y-10932360D01*
X16901777Y-10932360D02*
X16892253Y-10913312D01*
X16892253Y-10913312D02*
X16892253Y-10837122D01*
X16892253Y-10837122D02*
X16901777Y-10818074D01*
X16901777Y-10818074D02*
X16920825Y-10808550D01*
X16920825Y-10808550D02*
X16958920Y-10808550D01*
X16958920Y-10808550D02*
X16977968Y-10818074D01*
X16977968Y-10818074D02*
X16987492Y-10837122D01*
X16987492Y-10837122D02*
X16987492Y-10856170D01*
X16987492Y-10856170D02*
X16892253Y-10875217D01*
X17063682Y-10932360D02*
X17082730Y-10941884D01*
X17082730Y-10941884D02*
X17120825Y-10941884D01*
X17120825Y-10941884D02*
X17139873Y-10932360D01*
X17139873Y-10932360D02*
X17149396Y-10913312D01*
X17149396Y-10913312D02*
X17149396Y-10903789D01*
X17149396Y-10903789D02*
X17139873Y-10884741D01*
X17139873Y-10884741D02*
X17120825Y-10875217D01*
X17120825Y-10875217D02*
X17092253Y-10875217D01*
X17092253Y-10875217D02*
X17073206Y-10865693D01*
X17073206Y-10865693D02*
X17063682Y-10846646D01*
X17063682Y-10846646D02*
X17063682Y-10837122D01*
X17063682Y-10837122D02*
X17073206Y-10818074D01*
X17073206Y-10818074D02*
X17092253Y-10808550D01*
X17092253Y-10808550D02*
X17120825Y-10808550D01*
X17120825Y-10808550D02*
X17139873Y-10818074D01*
X17216063Y-11018074D02*
X17225587Y-11008550D01*
X17225587Y-11008550D02*
X17244634Y-10979979D01*
X17244634Y-10979979D02*
X17254158Y-10960931D01*
X17254158Y-10960931D02*
X17263682Y-10932360D01*
X17263682Y-10932360D02*
X17273206Y-10884741D01*
X17273206Y-10884741D02*
X17273206Y-10846646D01*
X17273206Y-10846646D02*
X17263682Y-10799027D01*
X17263682Y-10799027D02*
X17254158Y-10770455D01*
X17254158Y-10770455D02*
X17244634Y-10751408D01*
X17244634Y-10751408D02*
X17225587Y-10722836D01*
X17225587Y-10722836D02*
X17216063Y-10713312D01*
M02*
