%TF.GenerationSoftware,KiCad,Pcbnew,7.0.7*%
%TF.CreationDate,2024-05-24T10:30:38-07:00*%
%TF.ProjectId,Pinky,50696e6b-792e-46b6-9963-61645f706362,rev?*%
%TF.SameCoordinates,Original*%
%TF.FileFunction,Soldermask,Top*%
%TF.FilePolarity,Negative*%
%FSLAX46Y46*%
G04 Gerber Fmt 4.6, Leading zero omitted, Abs format (unit mm)*
G04 Created by KiCad (PCBNEW 7.0.7) date 2024-05-24 10:30:38*
%MOMM*%
%LPD*%
G01*
G04 APERTURE LIST*
G04 Aperture macros list*
%AMRoundRect*
0 Rectangle with rounded corners*
0 $1 Rounding radius*
0 $2 $3 $4 $5 $6 $7 $8 $9 X,Y pos of 4 corners*
0 Add a 4 corners polygon primitive as box body*
4,1,4,$2,$3,$4,$5,$6,$7,$8,$9,$2,$3,0*
0 Add four circle primitives for the rounded corners*
1,1,$1+$1,$2,$3*
1,1,$1+$1,$4,$5*
1,1,$1+$1,$6,$7*
1,1,$1+$1,$8,$9*
0 Add four rect primitives between the rounded corners*
20,1,$1+$1,$2,$3,$4,$5,0*
20,1,$1+$1,$4,$5,$6,$7,0*
20,1,$1+$1,$6,$7,$8,$9,0*
20,1,$1+$1,$8,$9,$2,$3,0*%
G04 Aperture macros list end*
%ADD10R,0.990600X3.505200*%
%ADD11R,1.600200X3.505200*%
%ADD12R,1.000000X0.800000*%
%ADD13C,0.900000*%
%ADD14R,0.700000X1.500000*%
%ADD15RoundRect,0.125000X-0.125000X0.825000X-0.125000X-0.825000X0.125000X-0.825000X0.125000X0.825000X0*%
%ADD16RoundRect,0.155000X-0.212500X-0.155000X0.212500X-0.155000X0.212500X0.155000X-0.212500X0.155000X0*%
%ADD17RoundRect,0.155000X-0.155000X0.212500X-0.155000X-0.212500X0.155000X-0.212500X0.155000X0.212500X0*%
%ADD18RoundRect,0.250002X-1.499998X-1.499998X1.499998X-1.499998X1.499998X1.499998X-1.499998X1.499998X0*%
%ADD19R,1.700000X1.700000*%
%ADD20O,1.700000X1.700000*%
%ADD21RoundRect,0.237500X0.300000X0.237500X-0.300000X0.237500X-0.300000X-0.237500X0.300000X-0.237500X0*%
%ADD22RoundRect,0.150000X0.150000X-0.512500X0.150000X0.512500X-0.150000X0.512500X-0.150000X-0.512500X0*%
%ADD23RoundRect,0.160000X0.160000X-0.197500X0.160000X0.197500X-0.160000X0.197500X-0.160000X-0.197500X0*%
%ADD24RoundRect,0.237500X0.237500X-0.287500X0.237500X0.287500X-0.237500X0.287500X-0.237500X-0.287500X0*%
%ADD25RoundRect,0.160000X-0.197500X-0.160000X0.197500X-0.160000X0.197500X0.160000X-0.197500X0.160000X0*%
%ADD26RoundRect,0.225000X-0.375000X0.225000X-0.375000X-0.225000X0.375000X-0.225000X0.375000X0.225000X0*%
G04 APERTURE END LIST*
D10*
%TO.C,J6*%
X140413999Y-74064701D03*
X138414001Y-74064701D03*
X136414000Y-74064701D03*
X134414001Y-74064701D03*
D11*
X132064001Y-68314699D03*
X142764000Y-68314699D03*
%TD*%
D12*
%TO.C,SW1*%
X138844000Y-89423000D03*
X138844000Y-91633000D03*
D13*
X140994000Y-90533000D03*
X143994000Y-90533000D03*
D12*
X146144000Y-89423000D03*
X146144000Y-91633000D03*
D14*
X140244000Y-88773000D03*
X143244000Y-88773000D03*
X144744000Y-88773000D03*
%TD*%
D15*
%TO.C,IC1*%
X156341000Y-81280000D03*
X155691000Y-81280000D03*
X155041000Y-81280000D03*
X154391000Y-81280000D03*
X153741000Y-81280000D03*
X153091000Y-81280000D03*
X152441000Y-81280000D03*
X151791000Y-81280000D03*
X151141000Y-81280000D03*
X150491000Y-81280000D03*
X150491000Y-88280000D03*
X151141000Y-88280000D03*
X151791000Y-88280000D03*
X152441000Y-88280000D03*
X153091000Y-88280000D03*
X153741000Y-88280000D03*
X154391000Y-88280000D03*
X155041000Y-88280000D03*
X155691000Y-88280000D03*
X156341000Y-88280000D03*
%TD*%
D16*
%TO.C,C2*%
X167580500Y-81788000D03*
X168715500Y-81788000D03*
%TD*%
D17*
%TO.C,C_in1*%
X125796000Y-78305000D03*
X125796000Y-79440000D03*
%TD*%
D10*
%TO.C,J4*%
X170386000Y-74064701D03*
X168386002Y-74064701D03*
X166386001Y-74064701D03*
X164386002Y-74064701D03*
D11*
X162036002Y-68314699D03*
X172736001Y-68314699D03*
%TD*%
D18*
%TO.C,J2*%
X127508000Y-68834000D03*
%TD*%
D19*
%TO.C,J3*%
X172974000Y-88138000D03*
D20*
X172974000Y-85598000D03*
X172974000Y-83058000D03*
X172974000Y-80518000D03*
X172974000Y-77978000D03*
%TD*%
D21*
%TO.C,C_out2*%
X128944500Y-81920500D03*
X127219500Y-81920500D03*
%TD*%
D22*
%TO.C,IC2*%
X127132000Y-80010000D03*
X129032000Y-80010000D03*
X128082000Y-77735000D03*
%TD*%
D23*
%TO.C,R6*%
X133604000Y-93561500D03*
X133604000Y-92366500D03*
%TD*%
%TO.C,R7*%
X135382000Y-93561500D03*
X135382000Y-92366500D03*
%TD*%
D24*
%TO.C,D3*%
X133604000Y-90791000D03*
X133604000Y-89041000D03*
%TD*%
D19*
%TO.C,J11*%
X153162000Y-94488000D03*
D20*
X155702000Y-94488000D03*
%TD*%
D10*
%TO.C,J5*%
X155400000Y-74064701D03*
X153400002Y-74064701D03*
X151400001Y-74064701D03*
X149400002Y-74064701D03*
D11*
X147050002Y-68314699D03*
X157750001Y-68314699D03*
%TD*%
D24*
%TO.C,D4*%
X135382000Y-90791000D03*
X135382000Y-89041000D03*
%TD*%
D18*
%TO.C,J1*%
X127508000Y-73914000D03*
%TD*%
D24*
%TO.C,D2*%
X137160000Y-90791000D03*
X137160000Y-89041000D03*
%TD*%
D16*
%TO.C,C1*%
X157869000Y-81280000D03*
X159004000Y-81280000D03*
%TD*%
D25*
%TO.C,R1*%
X166280500Y-83058000D03*
X167475500Y-83058000D03*
%TD*%
D19*
%TO.C,J10*%
X172974000Y-91948000D03*
D20*
X172974000Y-94488000D03*
%TD*%
D26*
%TO.C,D1*%
X165862000Y-78360000D03*
X165862000Y-81660000D03*
%TD*%
D23*
%TO.C,R2*%
X137160000Y-93561500D03*
X137160000Y-92366500D03*
%TD*%
D19*
%TO.C,J7*%
X169388000Y-91928000D03*
D20*
X169388000Y-94468000D03*
X166848000Y-91928000D03*
X166848000Y-94468000D03*
X164308000Y-91928000D03*
X164308000Y-94468000D03*
X161768000Y-91928000D03*
X161768000Y-94468000D03*
X159228000Y-91928000D03*
X159228000Y-94468000D03*
%TD*%
M02*
