%TF.GenerationSoftware,KiCad,Pcbnew,7.0.7*%
%TF.CreationDate,2024-05-24T10:30:38-07:00*%
%TF.ProjectId,Pinky,50696e6b-792e-46b6-9963-61645f706362,rev?*%
%TF.SameCoordinates,Original*%
%TF.FileFunction,Legend,Bot*%
%TF.FilePolarity,Positive*%
%FSLAX46Y46*%
G04 Gerber Fmt 4.6, Leading zero omitted, Abs format (unit mm)*
G04 Created by KiCad (PCBNEW 7.0.7) date 2024-05-24 10:30:38*
%MOMM*%
%LPD*%
G01*
G04 APERTURE LIST*
%ADD10C,0.508000*%
%ADD11C,0.120000*%
%ADD12C,0.152400*%
G04 APERTURE END LIST*
D10*
%TO.C,J6*%
X144507000Y-74064701D02*
G75*
G03*
X144507000Y-74064701I-381000J0D01*
G01*
%TO.C,J4*%
X174479001Y-74064701D02*
G75*
G03*
X174479001Y-74064701I-381000J0D01*
G01*
%TO.C,J5*%
X159493001Y-74064701D02*
G75*
G03*
X159493001Y-74064701I-381000J0D01*
G01*
D11*
%TO.C,C4*%
X135615000Y-79959165D02*
X135615000Y-80190835D01*
X134895000Y-79959165D02*
X134895000Y-80190835D01*
D12*
%TO.C,J8*%
X124748700Y-86762900D02*
X124748700Y-78457100D01*
X125799058Y-86762900D02*
X124748700Y-86762900D01*
X124748700Y-78457100D02*
X125799058Y-78457100D01*
D10*
X130089499Y-88540900D02*
G75*
G03*
X130089499Y-88540900I-381000J0D01*
G01*
D11*
%TO.C,J7*%
X157898000Y-95798000D02*
X157898000Y-90598000D01*
X170718000Y-95798000D02*
X157898000Y-95798000D01*
X170718000Y-95798000D02*
X170718000Y-93198000D01*
X168118000Y-93198000D02*
X168118000Y-90598000D01*
X170718000Y-93198000D02*
X168118000Y-93198000D01*
X170718000Y-91928000D02*
X170718000Y-90598000D01*
X168118000Y-90598000D02*
X157898000Y-90598000D01*
X170718000Y-90598000D02*
X169388000Y-90598000D01*
%TO.C,U1*%
X146157000Y-82615000D02*
X146157000Y-80665000D01*
X146157000Y-82615000D02*
X146157000Y-84565000D01*
X136037000Y-82615000D02*
X136037000Y-79165000D01*
X136037000Y-82615000D02*
X136037000Y-84565000D01*
%TO.C,F1*%
X134425000Y-80720748D02*
X134425000Y-83493252D01*
X131005000Y-80720748D02*
X131005000Y-83493252D01*
%TO.C,C3*%
X137873665Y-77932000D02*
X138105335Y-77932000D01*
X137873665Y-78652000D02*
X138105335Y-78652000D01*
%TO.C,C5*%
X136536165Y-86508000D02*
X136767835Y-86508000D01*
X136536165Y-87228000D02*
X136767835Y-87228000D01*
%TO.C,D5*%
X136599000Y-78535000D02*
X132589000Y-78535000D01*
X136599000Y-76535000D02*
X136599000Y-78535000D01*
X136599000Y-76535000D02*
X132589000Y-76535000D01*
%TD*%
M02*
