M48
; DRILL file {KiCad 7.0.7} date Fri May 24 10:30:41 2024
; FORMAT={-:-/ absolute / inch / decimal}
; #@! TF.CreationDate,2024-05-24T10:30:41-07:00
; #@! TF.GenerationSoftware,Kicad,Pcbnew,7.0.7
; #@! TF.FileFunction,Plated,1,2,PTH
FMAT,2
INCH
; #@! TA.AperFunction,Plated,PTH,ViaDrill
T1C0.0157
; #@! TA.AperFunction,Plated,PTH,ComponentDrill
T2C0.0394
; #@! TA.AperFunction,Plated,PTH,ComponentDrill
T3C0.0610
%
G90
G05
T1
X5.22Y-3.2
X5.27Y-3.07
X5.33Y-3.45
X5.43Y-3.22
X5.46Y-3.45
X5.49Y-3.22
X5.74Y-3.42
X5.75Y-3.47
X5.79Y-2.87
X5.8011Y-3.16
X5.84Y-3.37
X5.84Y-3.05
X5.8602Y-3.1498
X5.88Y-3.19
X5.94Y-3.09
X5.99Y-3.02
X6.01Y-3.09
X6.15Y-3.06
X6.2079Y-3.4726
X6.23Y-3.24
X6.25Y-3.43
X6.255Y-3.485
X6.27Y-3.53
X6.31Y-3.2
X6.32Y-3.54
X6.35Y-3.51
X6.54Y-3.31
T2
X6.03Y-3.72
X6.13Y-3.72
X6.2688Y-3.6192
X6.2688Y-3.7192
X6.3688Y-3.6192
X6.3688Y-3.7192
X6.4688Y-3.6192
X6.4688Y-3.7192
X6.5688Y-3.6192
X6.5688Y-3.7192
X6.6688Y-3.6192
X6.6688Y-3.7192
X6.81Y-3.07
X6.81Y-3.17
X6.81Y-3.27
X6.81Y-3.37
X6.81Y-3.47
X6.81Y-3.62
X6.81Y-3.72
T3
X5.02Y-2.71
X5.02Y-2.91
T0
M30
